<?xml version="1.0" encoding="utf-8"?>
<!-- Generator: Adobe Illustrator 28.0.0, SVG Export Plug-In . SVG Version: 6.00 Build 0)  -->
<svg version="1.1" id="Capa_1" xmlns="http://www.w3.org/2000/svg" xmlns:xlink="http://www.w3.org/1999/xlink" x="0px" y="0px"
	 viewBox="0 0 286.3 113.4" style="enable-background:new 0 0 286.3 113.4;" xml:space="preserve">
<style type="text/css">
	.st0{fill:#3E3E3E;}
	.st1{fill:#76BAE5;}
	.st2{fill:url(#SVGID_1_);}
	.st3{fill:url(#SVGID_00000029752142868735099240000000817340410837902241_);}
</style>
<g>
	<path class="st0" d="M92.7,0.5v65.9c0,4.7-3.8,8.6-8.6,8.6h-2.9V9.1c0-4.7,3.8-8.6,8.6-8.6H92.7z"/>
	<g>
		<path class="st1" d="M226.1,108.9v5h-19.4V86.4h19v5h-13.7v5.9h12.7v5h-12.7v6.5H226.1z"/>
		<path class="st1" d="M239.6,103.9h-3.9v10h-5.2V86.4h10.9c1.3,0,2.5,0.2,3.6,0.7c1.1,0.5,2.1,1.1,2.9,1.9c0.8,0.8,1.5,1.7,1.9,2.7
			c0.5,1,0.7,2.1,0.7,3.3c0,1.5-0.3,2.8-0.9,3.8c-0.6,1-1.3,1.8-2.1,2.5c-0.9,0.8-1.8,1.3-2.9,1.7l6.5,10.9h-5.9L239.6,103.9z
			 M235.7,98.8h5.7c1.1,0,2-0.4,2.8-1.1c0.8-0.7,1.1-1.6,1.1-2.6c0-1-0.4-1.9-1.1-2.6c-0.8-0.7-1.7-1.1-2.8-1.1h-5.7V98.8z"/>
		<path class="st1" d="M264.8,86.4c1.3,0,2.5,0.2,3.7,0.7s2.1,1.1,3,2c0.9,0.8,1.5,1.8,2,2.9c0.5,1.1,0.7,2.3,0.7,3.6
			c0,1.3-0.2,2.4-0.7,3.6c-0.5,1.1-1.1,2.1-2,2.9c-0.9,0.8-1.9,1.5-3,2c-1.1,0.5-2.4,0.7-3.7,0.7h-5v9.2h-5.2V86.4H264.8z
			 M264.8,99.7c0.6,0,1.1-0.1,1.6-0.3c0.5-0.2,0.9-0.5,1.3-0.9c0.4-0.4,0.7-0.8,0.9-1.3c0.2-0.5,0.3-1,0.3-1.6
			c0-0.6-0.1-1.1-0.3-1.6c-0.2-0.5-0.5-0.9-0.9-1.3c-0.4-0.4-0.8-0.7-1.3-0.9c-0.5-0.2-1-0.3-1.6-0.3h-5v8.3H264.8z"/>
	</g>
	<linearGradient id="SVGID_1_" gradientUnits="userSpaceOnUse" x1="59.3461" y1="76.6632" x2="59.3461" y2="49.9805">
		<stop  offset="0" style="stop-color:#76BAE5"/>
		<stop  offset="1" style="stop-color:#3E3E3E"/>
	</linearGradient>
	<path class="st2" d="M57.1,55.2c-1.4,2.8-3.6,6.6-6.7,10.4l1.3,4.7c1,3.7,4.4,6.3,8.3,6.3h8.1L59.7,50C58.7,52.2,57.8,54,57.1,55.2
		z"/>
	
		<linearGradient id="SVGID_00000134214928038330443920000008519770217688531356_" gradientUnits="userSpaceOnUse" x1="12.1728" y1="27.3114" x2="41.9003" y2="57.0389">
		<stop  offset="0" style="stop-color:#76BAE5"/>
		<stop  offset="0.1158" style="stop-color:#73B3DC"/>
		<stop  offset="0.3048" style="stop-color:#6BA1C4"/>
		<stop  offset="0.5435" style="stop-color:#5E849C"/>
		<stop  offset="0.8197" style="stop-color:#4B5B65"/>
		<stop  offset="1" style="stop-color:#3E3E3E"/>
	</linearGradient>
	<path style="fill:url(#SVGID_00000134214928038330443920000008519770217688531356_);" d="M24.1,67.2c9.2,0,14.6-6.1,18.2-12.1
		c0,0,0,0,0,0c-2.1,2.7-6.3,7-13,7s-11.8-5.3-11.8-12c0-5,4.8-15.2,15.3-15.2c9.9,0,12.6,12.2,12.9,13.6c2-4.1,5.2-11.2,8-17.3
		c-1.1-2-7.1-11.2-20.8-11.2C11.4,20,0.5,38.8,0.5,51.4C3.7,59.5,12.2,67.2,24.1,67.2z"/>
	<path class="st1" d="M72.7,21.7c0,0-11.7,26.1-15.5,33.6S44.2,78.4,25.6,78.4S0.5,62.7,0.5,51.4c3.2,8.1,11.7,15.7,23.6,15.7
		S41.5,57.1,45,50c3.4-7.1,13-28.3,13-28.3H72.7z"/>
	<path class="st0" d="M262.8,23.4v5.1h-1.2c-3.7-4.3-9.1-6.9-16.2-6.9c-15.5,0-22.7,12.3-22.7,27.5s7.3,27.5,22.7,27.5
		c7.1,0,12.4-2.6,16.2-6.9h1.2v5.1h11.5V23.4H262.8z M248.5,66.7c-9.8,0-14.3-7.9-14.3-17.6s4.6-17.6,14.3-17.6
		c9.8,0,14.3,7.9,14.3,17.6S258.3,66.7,248.5,66.7z"/>
	<path class="st0" d="M116.7,87V69.8h1.2c3.7,4.3,9.1,6.9,16.2,6.9c15.5,0,22.7-12.3,22.7-27.5s-7.3-27.5-22.7-27.5
		c-7.1,0-12.4,2.6-16.2,6.9h-1.2v-5.1h-11.5v72.2h2.9C112.9,95.6,116.7,91.7,116.7,87z M131,31.6c9.8,0,14.3,7.9,14.3,17.6
		s-4.6,17.6-14.3,17.6c-9.8,0-14.3-7.9-14.3-17.6S121.2,31.6,131,31.6z"/>
	<path class="st0" d="M194.3,21.7c-7.1,0-12.4,2.6-16.2,6.9h-1.2v-28H174c-4.7,0-8.6,3.8-8.6,8.6v65.9h11.5V49.7
		c0-9.7,5.1-17.6,14-17.6c11.4,0,11.4,9.3,11.4,14.7v28h11.8c0,0,0-16.9,0-32.1C214.1,33.1,209.7,21.7,194.3,21.7z"/>
	<path class="st0" d="M286.8,71.5c0,0.5-0.1,0.9-0.3,1.4c-0.2,0.4-0.4,0.8-0.7,1.1c-0.3,0.3-0.7,0.6-1.1,0.7
		c-0.4,0.2-0.9,0.3-1.3,0.3c-0.5,0-0.9-0.1-1.3-0.3c-0.4-0.2-0.8-0.4-1.1-0.7c-0.3-0.3-0.6-0.7-0.7-1.1c-0.2-0.4-0.3-0.9-0.3-1.4
		c0-0.5,0.1-0.9,0.3-1.3c0.2-0.4,0.4-0.8,0.7-1.1c0.3-0.3,0.7-0.6,1.1-0.7c0.4-0.2,0.9-0.3,1.3-0.3c0.5,0,0.9,0.1,1.3,0.3
		c0.4,0.2,0.8,0.4,1.1,0.7c0.3,0.3,0.6,0.7,0.7,1.1C286.7,70.6,286.8,71,286.8,71.5z M286,71.5c0-0.4-0.1-0.8-0.2-1.1
		c-0.1-0.3-0.3-0.6-0.6-0.9c-0.2-0.2-0.5-0.4-0.8-0.6c-0.3-0.1-0.7-0.2-1-0.2c-0.4,0-0.7,0.1-1,0.2c-0.3,0.1-0.6,0.3-0.8,0.6
		c-0.2,0.2-0.4,0.5-0.6,0.9c-0.1,0.3-0.2,0.7-0.2,1.1c0,0.4,0.1,0.8,0.2,1.1s0.3,0.6,0.6,0.9c0.2,0.2,0.5,0.4,0.8,0.6
		c0.3,0.1,0.7,0.2,1,0.2c0.4,0,0.7-0.1,1-0.2c0.3-0.1,0.6-0.3,0.8-0.6c0.2-0.2,0.4-0.5,0.6-0.9S286,71.9,286,71.5z M284.7,70.9
		c0,0.2,0,0.4-0.1,0.5c-0.1,0.1-0.2,0.2-0.3,0.3c-0.1,0.1-0.3,0.2-0.4,0.2l1,1.4h-0.8l-0.9-1.3h-0.3v1.3h-0.7v-3.5h1.3
		c0.2,0,0.3,0,0.4,0.1c0.1,0.1,0.3,0.1,0.4,0.2c0.1,0.1,0.2,0.2,0.3,0.4C284.7,70.6,284.7,70.7,284.7,70.9z M283.6,71.3
		c0.1,0,0.3,0,0.3-0.1c0.1-0.1,0.1-0.2,0.1-0.3s0-0.3-0.1-0.3c-0.1-0.1-0.2-0.1-0.3-0.1h-0.6v1H283.6z"/>
</g>
</svg>
