<svg xmlns="http://www.w3.org/2000/svg" viewBox="0 0 31.5 25.3"><defs><style>.cls-1{fill:#fff;}</style></defs><g id="Capa_2" data-name="Capa 2"><g id="Menú_lateral" data-name="Menú lateral"><path class="cls-1" d="M1.75,14.4a1.72,1.72,0,0,1-1.21-.49,1.75,1.75,0,0,1-.05-2.48L11,.54A1.75,1.75,0,0,1,13.5,3L3,13.86A1.73,1.73,0,0,1,1.75,14.4Z"/><path class="cls-1" d="M12.24,25.3A1.73,1.73,0,0,1,11,24.76L.49,13.86A1.75,1.75,0,0,1,3,11.43L13.5,22.33a1.75,1.75,0,0,1-.05,2.48A1.78,1.78,0,0,1,12.24,25.3Z"/><path class="cls-1" d="M29.75,14.4h-28a1.75,1.75,0,0,1,0-3.5h28a1.75,1.75,0,0,1,0,3.5Z"/></g></g></svg>