<?xml version="1.0" encoding="utf-8"?>
<!-- Generator: Adobe Illustrator 28.0.0, SVG Export Plug-In . SVG Version: 6.00 Build 0)  -->
<svg version="1.1" id="Capa_1" xmlns="http://www.w3.org/2000/svg" xmlns:xlink="http://www.w3.org/1999/xlink" x="0px" y="0px"
	 viewBox="0 0 56.7 56.7" style="enable-background:new 0 0 56.7 56.7;" xml:space="preserve">
<style type="text/css">
	.st0{fill:#76BAE5;}
</style>
<path class="st0" d="M43.3,20L26,41c-0.8,1-2,1.5-3.2,1.5c0,0-0.1,0-0.1,0c-1.3,0-2.5-0.6-3.2-1.7l-6.1-8.2c-1.2-1.6-0.9-3.8,0.7-5
	c1.5-1.2,3.7-0.9,4.9,0.7l4,5.4L38,15.4c0.6-0.7,1.4-1.2,2.4-1.2c0.9-0.1,1.8,0.2,2.5,0.8c0.7,0.6,1.1,1.5,1.2,2.4
	C44.2,18.4,43.9,19.3,43.3,20z"/>
</svg>
