<?xml version="1.0" encoding="utf-8"?>
<!-- Generator: Adobe Illustrator 28.0.0, SVG Export Plug-In . SVG Version: 6.00 Build 0)  -->
<svg version="1.1" id="Capa_1" xmlns="http://www.w3.org/2000/svg" xmlns:xlink="http://www.w3.org/1999/xlink" x="0px" y="0px"
	 viewBox="0 0 166.9 56.7" style="enable-background:new 0 0 166.9 56.7;" xml:space="preserve">
<style type="text/css">
	.st0{fill:#714B67;}
	.st1{fill:#8F8F8F;}
</style>
<g>
	<path class="st0" d="M21.7,13.3C9.7,13.3,0,23,0,35c0,12,9.7,21.7,21.7,21.7S43.4,47,43.4,35C43.4,23,33.7,13.3,21.7,13.3z
		 M21.7,47.7C14.7,47.7,9,42,9,35s5.7-12.7,12.7-12.7c7,0,12.7,5.7,12.7,12.7S28.7,47.7,21.7,47.7z"/>
	<path class="st1" d="M156.4,31.4c-3.6-1.4-5.8-3.2-6.3-5c-0.3-1-0.1-2,0.5-2.9c1.2-1.8,3.2-2,5.5-0.6c3.6,2.1,5.6,2.3,7,0.6
		c1.7-2,0.6-5-1.4-6.9c-1.9-1.9-5.2-3.2-8.1-3.2c-6.2,0-12.8,4.9-12.8,12.7c0,7.6,6.3,10.6,10.6,12.6l0.6,0.3
		c3.3,1.6,5.3,3.6,5.7,5.4c0.2,1-0.1,2-0.8,2.8c-2.7,3-7.1-0.3-8-1l-0.1-0.1c-0.9-0.7-2.6-2.1-4.4-2.1c-0.6,0-1.1,0.1-1.7,0.5
		c-1,0.6-1.6,1.5-1.8,2.5c-0.2,1.3,0.2,2.7,1.3,4c3.1,3.9,6.7,5.7,11.9,5.7c9.4,0,12.7-6.5,12.7-12.6
		C166.9,36.5,160.9,33.2,156.4,31.4z"/>
	<path class="st1" d="M86.4,13.7c-7.9,2.9-13,8.4-14.5,16.7c-0.7,3.8-0.4,10.7-0.4,11.8c0,1.8,0,6.2,0,9.7c0,2.7,2.2,4.8,4.8,4.8
		l0,0c2.7,0,4.8-2.2,4.8-4.8c0-5.1,0-13,0-16.5c0-6.3,2.7-10.3,8.5-12.6c2.9-1.2,4.2-3.6,3.2-6.3C91.9,13.9,89.1,12.6,86.4,13.7z"/>
	<path class="st1" d="M114.8,13.3c-12,0-21.7,9.7-21.7,21.7c0,12,9.7,21.7,21.7,21.7S136.5,47,136.5,35
		C136.5,23,126.8,13.3,114.8,13.3z M114.8,47.7c-7,0-12.7-5.7-12.7-12.7s5.7-12.7,12.7-12.7c7,0,12.7,5.7,12.7,12.7
		S121.9,47.7,114.8,47.7z"/>
	<path class="st1" d="M67.1,17.6c0-2.4-1.9-4.3-4.3-4.3h-5.4c0-3.7,0-7.8,0-8.5c0-2.6-2.1-4.8-4.8-4.8c-2.6,0-4.8,2.1-4.8,4.8
		c0,2.6-0.1,30.4,0,37c0.1,10.8,6.5,15.1,14.4,14.9c2.7-0.1,4.8-2.1,4.9-4.7c0.1-2.5-1.8-4.6-4.4-4.9c-3.8-0.4-5.3-2-5.3-6
		c0-3.3,0-11.5,0-19.2h5.4C65.2,22,67.1,20,67.1,17.6z"/>
</g>
</svg>
