<?xml version="1.0" encoding="utf-8"?>
<!-- Generator: Adobe Illustrator 28.0.0, SVG Export Plug-In . SVG Version: 6.00 Build 0)  -->
<svg version="1.1" id="Capa_1" xmlns="http://www.w3.org/2000/svg" xmlns:xlink="http://www.w3.org/1999/xlink" x="0px" y="0px"
	 viewBox="0 0 56.7 56.7" style="enable-background:new 0 0 56.7 56.7;" xml:space="preserve">
<style type="text/css">
	.st0{fill:#76BAE5;}
</style>
<path class="st0" d="M40.5,34l-5.7-5.7l5.7-5.7c0.8-0.8,1.2-1.9,1.2-2.9c0-1.1-0.4-2.1-1.2-2.9l-9.2-9.2c-0.8-0.8-1.9-1.2-2.9-1.2
	c-1.1,0-2.1,0.4-2.9,1.2L15,18l4.7,4.7l8.6-8.6l5.6,5.6l-5.7,5.7c-0.8,0.8-1.2,1.9-1.2,2.9c0,1.1,0.4,2.1,1.2,2.9L34,37l-5.6,5.6
	L19.7,34L15,38.7l10.4,10.4c0.8,0.8,1.9,1.2,2.9,1.2c1.1,0,2.1-0.4,2.9-1.2l9.2-9.2c0.8-0.8,1.2-1.9,1.2-2.9
	C41.7,35.9,41.3,34.9,40.5,34z"/>
</svg>
