<?xml version="1.0" encoding="utf-8"?>
<!-- Generator: Adobe Illustrator 28.0.0, SVG Export Plug-In . SVG Version: 6.00 Build 0)  -->
<svg version="1.1" id="Capa_1" xmlns="http://www.w3.org/2000/svg" xmlns:xlink="http://www.w3.org/1999/xlink" x="0px" y="0px"
	 viewBox="0 0 56.7 56.7" style="enable-background:new 0 0 56.7 56.7;" xml:space="preserve">
<style type="text/css">
	.st0{fill:#76BAE5;}
</style>
<g>
	<path class="st0" d="M44.8,32.9c-0.2-0.2-0.2-0.4-0.2-0.6v-7.8c0-0.2,0.1-0.4,0.2-0.6c1-1.1,2-2.2,3.1-3.3c0.5-0.6,0.6-1.4,0.2-2.1
		c-0.2-0.4-0.4-0.8-0.7-1.2c-0.2-0.4-0.4-0.8-0.7-1.2c-0.4-0.7-1.2-1-1.9-0.8c-1.5,0.3-2.9,0.7-4.4,1c-0.2,0.1-0.4,0-0.6-0.1
		c-2.3-1.3-4.5-2.6-6.8-3.9c-0.2-0.1-0.3-0.3-0.4-0.5c-0.4-1.4-0.9-2.9-1.3-4.3c-0.2-0.7-0.9-1.3-1.7-1.3H27c-0.8,0-1.5,0.5-1.7,1.3
		c-0.4,1.4-0.9,2.9-1.3,4.3c-0.1,0.2-0.2,0.4-0.4,0.5c-2.3,1.3-4.5,2.6-6.8,3.9c-0.2,0.1-0.4,0.1-0.6,0.1c-1.5-0.3-2.9-0.7-4.4-1
		c-0.8-0.2-1.5,0.2-1.9,0.8c-0.2,0.4-0.4,0.8-0.7,1.2c-0.2,0.4-0.4,0.8-0.7,1.2c-0.4,0.7-0.3,1.5,0.2,2.1c1,1.1,2,2.2,3.1,3.3
		c0.2,0.2,0.2,0.4,0.2,0.6v7.8c0,0.2-0.1,0.4-0.2,0.6c-1,1.1-2,2.2-3.1,3.3c-0.5,0.6-0.6,1.4-0.2,2.1C8.8,38.6,9,39,9.3,39.3
		c0.2,0.4,0.4,0.8,0.7,1.2c0.4,0.7,1.2,1,1.9,0.8c1.5-0.3,2.9-0.7,4.4-1c0.2,0,0.4,0,0.6,0.1c2.3,1.3,4.5,2.6,6.8,3.9
		c0.2,0.1,0.3,0.3,0.4,0.5c0.4,1.4,0.9,2.9,1.3,4.3c0.2,0.7,0.9,1.3,1.7,1.3h2.7c0.8,0,1.5-0.5,1.7-1.3c0.4-1.4,0.9-2.9,1.3-4.3
		c0.1-0.2,0.2-0.4,0.4-0.5c2.3-1.3,4.5-2.6,6.8-3.9c0.2-0.1,0.4-0.1,0.6-0.1c1.5,0.3,2.9,0.7,4.4,1c0.8,0.2,1.5-0.2,1.9-0.8
		c0.2-0.4,0.4-0.8,0.7-1.2c0.2-0.4,0.4-0.8,0.7-1.2c0.4-0.7,0.3-1.5-0.2-2.1C46.8,35,45.8,33.9,44.8,32.9z M28.3,40.3
		c-6.6,0-12-5.4-12-12s5.4-12,12-12c6.6,0,12,5.4,12,12S35,40.3,28.3,40.3z"/>
	<ellipse transform="matrix(0.9239 -0.3827 0.3827 0.9239 -8.69 13.0055)" class="st0" cx="28.3" cy="28.3" rx="7" ry="7"/>
</g>
</svg>
