<?xml version="1.0" encoding="utf-8"?>
<!-- Generator: Adobe Illustrator 28.0.0, SVG Export Plug-In . SVG Version: 6.00 Build 0)  -->
<svg version="1.1" id="Capa_1" xmlns="http://www.w3.org/2000/svg" xmlns:xlink="http://www.w3.org/1999/xlink" x="0px" y="0px"
	 viewBox="0 0 56.7 56.7" style="enable-background:new 0 0 56.7 56.7;" xml:space="preserve">
<style type="text/css">
	.st0{fill:#76BAE5;}
</style>
<path class="st0" d="M48,37.2c-0.7-1.5-1.5-3.1-2.2-4.6V16.9c0-0.9-0.4-1.9-1-2.5c-0.7-0.7-1.5-1-2.5-1H14.4c-0.9,0-1.8,0.4-2.5,1
	c-0.7,0.7-1,1.6-1,2.5v15.7c-0.7,1.5-1.5,3.1-2.2,4.6c-0.2,0.5-0.4,1-0.4,1.6v0.9c0,0.9,0.4,1.9,1,2.5c0.7,0.7,1.5,1,2.5,1h33
	c0.9,0,1.8-0.4,2.5-1c0.7-0.7,1-1.6,1-2.5v-0.9C48.3,38.3,48.2,37.7,48,37.2 M41.4,30c0,1-0.8,1.8-1.7,1.8H17c-1,0-1.7-0.8-1.7-1.8
	V19.3c0-1,0.8-1.8,1.7-1.8h22.6c1,0,1.7,0.8,1.7,1.8V30z"/>
</svg>
