<?xml version="1.0" encoding="utf-8"?>
<!-- Generator: Adobe Illustrator 28.0.0, SVG Export Plug-In . SVG Version: 6.00 Build 0)  -->
<svg version="1.1" id="Capa_1" xmlns="http://www.w3.org/2000/svg" xmlns:xlink="http://www.w3.org/1999/xlink" x="0px" y="0px"
	 viewBox="0 0 56.7 56.7" style="enable-background:new 0 0 56.7 56.7;" xml:space="preserve">
<style type="text/css">
	.st0{fill:#76BAE5;}
</style>
<path class="st0" d="M42.3,23.1v-2.8c0-6.6-5.4-12-12-12h-4c-6.6,0-12,5.4-12,12l0,2.8c-3.3,0-6,2.7-6,6v1.6c0,3.3,2.7,6,6,6h4
	c1.1,0,2-0.9,2-2v-9.6c0-1.1-0.9-2-2-2v-2.8c0-4.4,3.6-8,8-8h4c4.4,0,8,3.6,8,8l0,2.8c-1.1,0-2,0.9-2,2v9.6c0,1.1,0.9,2,2,2
	c0,3-2.4,5.5-5.3,5.6c-0.7-1.2-2-2-3.5-2h-2c-2.2,0-4,1.8-4,4c0,2.2,1.8,4,4,4h2c1.5,0,2.8-0.8,3.5-2c5.2-0.1,9.3-4.4,9.3-9.6
	c3.3,0,6-2.7,6-6v-1.6C48.3,25.8,45.7,23.1,42.3,23.1z"/>
</svg>
