<?xml version="1.0" encoding="utf-8"?>
<!-- Generator: Adobe Illustrator 28.0.0, SVG Export Plug-In . SVG Version: 6.00 Build 0)  -->
<svg version="1.1" id="Capa_1" xmlns="http://www.w3.org/2000/svg" xmlns:xlink="http://www.w3.org/1999/xlink" x="0px" y="0px"
	 viewBox="0 0 56.7 56.7" style="enable-background:new 0 0 56.7 56.7;" xml:space="preserve">
<style type="text/css">
	.st0{fill:#76BAE5;}
</style>
<g>
	<path class="st0" d="M42.1,31H26.7c-0.5,0-1-0.4-1-1V14.6c0-0.6-0.5-1-1-1C17.9,14,11.9,18.4,9.5,24.8c-2.4,6.4-0.9,13.6,4,18.5
		c4.8,4.8,12.1,6.4,18.5,4c6.4-2.4,10.8-8.4,11.2-15.2C43.1,31.4,42.6,31,42.1,31z"/>
	<path class="st0" d="M48.3,25.9c-2-8.8-8.8-15.6-17.6-17.6c-0.6-0.1-1.2,0.3-1.2,0.9v16.8c0,0.5,0.4,1,1,1h16.8
		C48,27.1,48.5,26.5,48.3,25.9z"/>
</g>
</svg>
