<?xml version="1.0" encoding="utf-8"?>
<!-- Generator: Adobe Illustrator 28.0.0, SVG Export Plug-In . SVG Version: 6.00 Build 0)  -->
<svg version="1.1" id="Capa_1" xmlns="http://www.w3.org/2000/svg" xmlns:xlink="http://www.w3.org/1999/xlink" x="0px" y="0px"
	 viewBox="0 0 56.7 56.7" style="enable-background:new 0 0 56.7 56.7;" xml:space="preserve">
<style type="text/css">
	.st0{fill:#76BAE5;}
</style>
<path class="st0" d="M28.3,8.3c-11,0-20,9-20,20c0,4.9,1.7,9.4,4.9,13.1l-4.4,4.4c-0.9,0.9-0.3,2.5,1,2.5c0,0,18.6,0,18.6,0
	c11,0,20-9,20-20C48.3,17.3,39.4,8.3,28.3,8.3z M26.5,36.2h-8c-1,0-1.7-0.8-1.7-1.7V22.2c0-1,0.8-1.7,1.7-1.7h7.8
	c1,0,1.7,0.8,1.7,1.7v0c0,1-0.8,1.7-1.7,1.7h-5.9v2.5h5.3c1,0,1.7,0.8,1.7,1.7c0,1-0.8,1.7-1.7,1.7h-5.3v2.8h6.1
	c1,0,1.7,0.8,1.7,1.7C28.2,35.4,27.5,36.2,26.5,36.2z M40.4,33.5c-0.3,0.6-0.6,1-1.1,1.5c-0.5,0.4-1.1,0.8-1.8,1
	c-0.7,0.3-1.6,0.4-2.5,0.4c-0.9,0-1.7-0.1-2.4-0.4c-0.7-0.2-1.3-0.6-1.8-1.1c-0.5-0.5-0.9-1-1.1-1.6c0,0,0,0,0,0
	c-0.4-1,0.3-2.1,1.4-2.2l0.3,0c0.7,0,1.3,0.3,1.6,1c0.3,0.7,1,1,2,1c0.7,0,1.2-0.2,1.6-0.5c0.4-0.3,0.5-0.7,0.5-1.1
	c0-0.4-0.2-0.7-0.6-0.9c-0.4-0.2-0.9-0.4-1.4-0.6c-0.6-0.2-1.2-0.4-1.9-0.6c-0.7-0.2-1.3-0.5-1.9-0.8c-0.6-0.4-1.1-0.8-1.4-1.4
	c-0.3-0.5-0.5-1.2-0.6-2c0-0.6,0-1.1,0.3-1.7c0.3-0.7,0.7-1.2,1.2-1.7c0.5-0.4,1.1-0.7,1.8-1c0.7-0.3,1.5-0.4,2.4-0.4
	c0.8,0,1.6,0.1,2.3,0.4c0.7,0.2,1.2,0.6,1.7,1c0.5,0.4,0.8,1,1.1,1.6c0,0,0,0,0,0c0.4,1-0.3,2-1.4,2.1l-0.3,0
	c-0.7,0-1.4-0.3-1.6-0.9c-0.1-0.2-0.2-0.3-0.3-0.5c-0.4-0.3-0.8-0.5-1.5-0.5c-0.6,0-1,0.2-1.4,0.5c-0.3,0.3-0.5,0.7-0.5,1
	c0,0.4,0.2,0.7,0.6,0.9c0.4,0.2,0.9,0.4,1.4,0.6c0.6,0.2,1.2,0.4,1.9,0.6c0.7,0.2,1.3,0.5,1.9,0.8c0.6,0.4,1.1,0.9,1.4,1.5
	c0.4,0.6,0.6,1.4,0.6,2.3C40.7,32.4,40.6,33,40.4,33.5z"/>
</svg>
